<?xml version="1.0" encoding="utf-8"?>
<!-- Generator: Adobe Illustrator 24.1.2, SVG Export Plug-In . SVG Version: 6.00 Build 0)  -->
<svg version="1.1" id="Laag_1" xmlns="http://www.w3.org/2000/svg" xmlns:xlink="http://www.w3.org/1999/xlink" x="0px" y="0px"
	 viewBox="0 0 73 60.3" style="enable-background:new 0 0 73 60.3;" xml:space="preserve">
<style type="text/css">
	.st0{fill:#EC6565;}
	.st1{fill:#77BE7C;}
	.st2{fill:#6F6CB0;}
	.st3{enable-background:new    ;}
	.st4{fill:#010202;}
</style>
<g>
	<g class="st3">
		<g>
			<path d="M36.5,18.9c0-5.1,1.8-9.4,5.3-12.9c3.5-3.5,7.8-5.3,12.9-5.3c5.1,0,9.4,1.8,12.9,5.3c3.5,3.5,5.3,7.8,5.3,12.9
				c0,7.3-2.4,13.4-7.3,18.3C61.3,41.6,51.6,48.9,36.5,59L7.3,37.2C2.4,32.3,0,26.2,0,18.9C0,13.8,1.8,9.5,5.3,6
				c3.5-3.5,7.8-5.3,12.9-5.3c5.1,0,9.4,1.8,13,5.3C34.8,9.5,36.5,13.8,36.5,18.9z"/>
		</g>
	</g>
</g>
</svg>
