<?xml version="1.0" encoding="utf-8"?>
<!-- Generator: Adobe Illustrator 24.1.2, SVG Export Plug-In . SVG Version: 6.00 Build 0)  -->
<svg version="1.1" id="Laag_1" xmlns="http://www.w3.org/2000/svg" xmlns:xlink="http://www.w3.org/1999/xlink" x="0px" y="0px"
	 viewBox="0 0 74 73.5" style="enable-background:new 0 0 74 73.5;" xml:space="preserve">
<style type="text/css">
	.st0{fill:#EC6565;}
	.st1{fill:#77BE7C;}
	.st2{fill:#6F6CB0;}
	.st3{enable-background:new    ;}
	.st4{fill:#010202;}
</style>
<g>
	<g class="st3">
		<g>
			<path d="M69.5,4.6c2.4,2.4,3.6,5.2,3.6,8.5c0,3.3-1.2,6.1-3.6,8.5L54,37.2l15.5,15.5c2.4,2.4,3.6,5.2,3.6,8.5
				c0,3.3-1.2,6.1-3.6,8.5c-2.3,2.3-5.1,3.5-8.5,3.5c-3.4,0-6.2-1.2-8.5-3.5L37,54.1L21.4,69.7c-2.3,2.3-5.1,3.5-8.5,3.5
				c-3.4,0-6.2-1.2-8.5-3.5c-2.4-2.4-3.6-5.2-3.6-8.5c0-3.3,1.2-6.1,3.6-8.5L20,37.2L4.5,21.6c-2.4-2.4-3.6-5.2-3.6-8.5
				c0-3.3,1.2-6.1,3.6-8.5C6.8,2.2,9.6,1,12.9,1c3.4,0,6.2,1.2,8.5,3.6L37,20.2L52.5,4.6C54.8,2.2,57.6,1,61,1
				C64.4,1,67.2,2.2,69.5,4.6z"/>
		</g>
	</g>
</g>
</svg>
