<?xml version="1.0" encoding="utf-8"?>
<!-- Generator: Adobe Illustrator 24.1.2, SVG Export Plug-In . SVG Version: 6.00 Build 0)  -->
<svg version="1.1" id="Laag_1" xmlns="http://www.w3.org/2000/svg" xmlns:xlink="http://www.w3.org/1999/xlink" x="0px" y="0px"
	 viewBox="0 0 74 73.5" style="enable-background:new 0 0 74 73.5;" xml:space="preserve">
<style type="text/css">
	.st0{fill:#EC6565;}
	.st1{fill:#77BE7C;}
	.st2{fill:#6F6CB0;}
	.st3{enable-background:new    ;}
	.st4{fill:#010202;}
</style>
<g>
	<g class="st3">
		<g>
			<path d="M25.3,24.7l9.6-21.2c0.4-0.8,1-1.3,2-1.3c1,0,1.6,0.4,2,1.3l9.6,21.2c9.2,1,16.9,1.8,23,2.5c0.8,0.1,1.4,0.6,1.8,1.5
				c0.4,0.8,0.2,1.6-0.5,2.3L55.6,46.7l4.6,22.7c0.1,0.8-0.1,1.6-0.8,2.2c-0.7,0.6-1.5,0.6-2.3,0.2L36.9,60.2
				c-8.1,4.6-14.8,8.4-20.2,11.5c-0.8,0.5-1.6,0.4-2.4-0.2c-0.7-0.6-1-1.3-0.9-2.2l4.7-22.7C11.3,40.4,5.6,35.2,1,31
				c-0.7-0.6-0.9-1.4-0.5-2.3c0.4-0.9,0.9-1.4,1.8-1.5L25.3,24.7z"/>
		</g>
	</g>
</g>
</svg>
